# xmcd
#
# Track frame offsets: 
#        150
#        18719
#        33649
#        51854
#        69226
#        86267
#        99167
#        118152
#        127455
#        145973
#        166015
#        177648
#
# Disc length: 2616 seconds
#
# Revision: 0
# Processed by: cddbd v1.5.2PL0 Copyright (c) Steve Scherf et al.
# Submitted via: ExactAudioCopy v1.2
#
DISCID=a80a360c
DTITLE=Louisville Fats and the The Rhythm Cat - Louisville Fats and th
DTITLE=e The Rhythm Cat
DYEAR=2016
DGENRE=Blues
TTITLE0=What Kinda Gal Is That (feat. Jimmy Gaetano)
TTITLE1=Thank You Baby
TTITLE2=Watch Out
TTITLE3=I'm Satisfied
TTITLE4=Love the Life I Live
TTITLE5=Heads Up
TTITLE6=Hey Hey
TTITLE7=Hall Pass
TTITLE8=Why Not
TTITLE9=Outskirts of Town
TTITLE10=Don't Go No Further
TTITLE11=Sticks Way out Behind
EXTD=
EXTT0=
EXTT1=
EXTT2=
EXTT3=
EXTT4=
EXTT5=
EXTT6=
EXTT7=
EXTT8=
EXTT9=
EXTT10=
EXTT11=
PLAYORDER=
